<svg width="30" height="40" viewBox="0 0 30 40" fill="none" xmlns="http://www.w3.org/2000/svg">
<path d="M0 2C0 0.895431 0.895431 0 2 0H28C29.1046 0 30 0.895431 30 2V38C30 39.1046 29.1046 40 28 40H2C0.89543 40 0 39.1046 0 38V2Z" fill="white"/>
<path d="M13.7118 12.4904L14.4055 12.2672V11.5519C14.4056 11.5504 14.4057 11.5485 14.4059 11.5462C14.407 11.5316 14.4096 11.5041 14.4158 11.4682C14.429 11.392 14.4535 11.3049 14.4927 11.2292C14.5295 11.1582 14.5708 11.1124 14.6191 11.0813C14.6628 11.0532 14.7689 11 14.9995 11C15.2302 11 15.3363 11.0532 15.38 11.0813C15.4283 11.1124 15.4696 11.1582 15.5064 11.2292C15.5456 11.3049 15.5701 11.392 15.5833 11.4682C15.5894 11.5041 15.5921 11.5316 15.5932 11.5462C15.5934 11.5485 15.5935 11.5504 15.5936 11.5519V12.2672L16.2873 12.4904C18.7482 13.2821 20.3757 15.49 20.3757 17.942V22.8672C20.3757 23.986 20.82 24.759 21.3994 25.377C21.6695 25.665 21.9739 25.925 22.2499 26.1586C22.2731 26.1783 22.2962 26.1978 22.3192 26.2172C22.5518 26.4139 22.7728 26.6007 22.991 26.8057C22.9922 26.8139 22.9934 26.8231 22.9946 26.8335C23.0069 26.9472 22.999 27.1091 22.962 27.2772C22.9459 27.3502 22.9271 27.4118 22.9087 27.4615H16.5936H15.5936V28.4481C15.5935 28.4496 15.5934 28.4515 15.5932 28.4538C15.5921 28.4684 15.5894 28.4959 15.5833 28.5318C15.5701 28.608 15.5456 28.6951 15.5064 28.7708C15.4696 28.8418 15.4283 28.8876 15.38 28.9187C15.3363 28.9468 15.2302 29 14.9995 29C14.7689 29 14.6628 28.9468 14.6191 28.9187C14.5708 28.8876 14.5295 28.8418 14.4927 28.7708C14.4535 28.6951 14.429 28.608 14.4158 28.5318C14.4096 28.4959 14.407 28.4684 14.4059 28.4538C14.4057 28.4515 14.4056 28.4496 14.4055 28.4481V27.4615H13.4055H7.09134C7.07295 27.4118 7.05414 27.3502 7.03802 27.2772C7.00095 27.1091 6.99307 26.9472 7.00542 26.8335C7.00655 26.8231 7.00778 26.8139 7.00901 26.8057C7.22708 26.6008 7.44781 26.4142 7.6802 26.2176C7.70337 26.198 7.72666 26.1783 7.75007 26.1585C8.02607 25.9249 8.33033 25.6649 8.60028 25.3768C9.17948 24.7587 9.62341 23.9857 9.62341 22.8672V17.942C9.62341 15.49 11.2509 13.2821 13.7118 12.4904ZM22.8354 27.6091C22.8354 27.609 22.8361 27.608 22.8377 27.6061C22.8362 27.6082 22.8354 27.6091 22.8354 27.6091ZM7.16462 27.6091C7.16462 27.6091 7.16384 27.6082 7.16228 27.6061C7.16385 27.608 7.16463 27.609 7.16462 27.6091Z" stroke="black" stroke-width="2"/>
</svg>
