<svg width="24" height="24" viewBox="0 0 24 24" fill="none" xmlns="http://www.w3.org/2000/svg">
<path fill-rule="evenodd" clip-rule="evenodd" d="M10.5529 4.13822C7.01017 4.13822 4.13822 7.01017 4.13822 10.5529C4.13822 14.0956 7.01017 16.9676 10.5529 16.9676C12.3246 16.9676 13.9268 16.2508 15.0888 15.0888C16.2508 13.9268 16.9676 12.3246 16.9676 10.5529C16.9676 7.01017 14.0956 4.13822 10.5529 4.13822ZM2 10.5529C2 5.82926 5.82926 2 10.5529 2C15.2765 2 19.1058 5.82926 19.1058 10.5529C19.1058 12.5289 18.4347 14.3496 17.3095 15.7975L22 20.488L20.488 22L15.7975 17.3095C14.3496 18.4347 12.5289 19.1058 10.5529 19.1058C5.82926 19.1058 2 15.2765 2 10.5529Z" fill="white"/>
</svg>
